<?xml version="1.0" encoding="utf-8"?>
<!-- Generator: Adobe Illustrator 20.1.0, SVG Export Plug-In . SVG Version: 6.00 Build 0)  -->
<svg version="1.1" id="Capa_1" xmlns="http://www.w3.org/2000/svg" xmlns:xlink="http://www.w3.org/1999/xlink" x="0px" y="0px"
	 viewBox="0 0 512 512" style="enable-background:new 0 0 512 512;" xml:space="preserve">
<style type="text/css">
	.st0{fill:#00838F;}
	.st1{fill:#FFFFFF;}
</style>
<g>
	<g>
		<path d="M512,385.2l-42.9-39.8l39.8-41.5h-61.1c-0.9-2.2-2.2-4.2-3.4-6c3.4-3.3,6.4-6.1,7.3-8.2c5.4-9.1,0-15.8-5.1-21
			c0.8-1.3,1.7-2.5,2.6-3.8c0.8-1.2,1.5-2.3,2.3-3.4c2.1-3.2,3.9-5.9,4.6-7.7c2.9-7,0.9-13.5-5.9-19.1c-0.8-0.7-1.6-1.2-2.4-1.8
			c2-4.2,3.8-8,4.3-10.2c2-8.2-2.7-13.1-8-16.3c-1.2-0.8-2.4-1.3-3.6-2c0.3-1.5,0.6-2.9,1-4.4c0.4-1.3,0.8-2.6,1.1-3.9
			c1.1-3.7,2-6.9,2.1-9.1c-0.1-10.9-8-14.8-14.9-17c0.6-4.6,1.2-8.8,1-11c-1.7-10.4-10-12.5-17.2-13.5c-0.2-2.5-0.4-5-0.4-7.2
			c-0.2-4.7-0.4-8.3-1.3-10.4c-3.2-10.3-11.8-11.5-18-11.5c-0.4,0-0.9,0-1.3,0c-0.9-4.6-1.6-8.7-2.8-10.6
			c-4.6-9.6-13.3-8.7-20.5-7.3c-1.1-2.4-2.2-4.9-3.1-7.1c-1.6-3.8-2.9-7.2-4.2-9c-3-4.3-7.2-6.5-12.4-6.5c-2.1,0-4.3,0.3-6.8,1
			c-1,0.3-1.9,0.7-2.9,1c-2.4-4-4.4-7.5-6-9.2c-5.7-6.1-12.6-4.6-18-2.2c-1.4,0.6-2.6,1.3-3.9,2c-1.8-1.9-3.5-3.9-5-5.6
			c-2.9-3.4-5.2-6.1-7.1-7.3c-6.2-4.1-12.8-3.8-19.9,1c-0.8,0.6-1.5,1.3-2.3,1.9c-3.6-3.1-6.6-5.8-8.7-6.7
			c-7.5-3.4-13.4-0.4-17.8,3.6c-1.1,1.1-2,2.2-2.9,3.3c-2.2-1.2-4.3-2.4-6.3-3.6c-4-2.4-7.2-4.3-9.4-4.7c-7.6-2.1-13.9,0.5-18.5,7.5
			c-0.6,0.9-1,1.6-1.6,2.5c-4.4-1.7-8.1-3.4-10.4-3.4c-8.2-1-12.9,3.6-15.6,9.3c-0.7,1.3-1.2,2.7-1.7,4c-2.7-0.4-5.3-0.9-7.8-1.4
			c-3.8-0.7-7.2-1.4-9.4-1.4H167c-10.9,0.3-14,10-15.1,13.1c-0.3,1-0.5,1.9-0.7,2.9c-4.6-0.2-8.6-0.4-10.9,0
			c-8.3,1.5-10.7,8.1-11.6,13.9c-0.3,1.5-0.3,2.9-0.4,4.3c-2.4,0.4-4.9,0.8-7.2,1c-4.7,0.6-8.3,1-10.3,2.1
			c-10.1,4.2-10.5,13-9.8,20.2c-4.5,1.2-8.4,2.3-10.2,3.6c-9,5.5-7.5,14-5.6,21.1c-1,0.5-1.9,1-2.8,1.5l-1.4,0.7
			c-1.2,0.7-2.4,1.3-3.6,1.9c-3.4,1.8-6.3,3.3-7.8,4.6c-8.7,6.9-5.1,16.5-3.9,19.6c0.4,1,0.8,1.8,1.2,2.7c-3.7,2.7-7,5.1-8.5,6.8
			c-5.7,6.2-3.6,12.9-0.7,18.2c0.8,1.3,1.5,2.4,2.3,3.5c-2,2.3-4.1,4.4-5.9,6.4c-2.6,2.8-4.9,5.1-6.2,7.1c-5,9.6,0,16.8,5,22
			c-2.6,3.7-4.9,6.9-5.9,9c-3.4,9.9,2.9,15.7,8.6,20c-1,2.3-2,4.5-3.1,6.6c-2.1,4.3-3.7,7.6-3.9,9.9c-1.1,5.9,0.6,10,3.3,13.2H3.1
			l39.8,41.5L0,385.2h92.6c3.1,3.5,7.6,4.6,11.8,4.9c1.4,0.1,2.7,0,4.1,0c0.7,2.7,1.3,5.4,1.9,7.8c0.9,4.3,1.7,7.6,2.7,9.7
			c3.6,6.6,9.9,9.4,18,8.6c1.2-0.2,2.1-0.4,3.2-0.7c1.6,4.3,3,8,4.3,9.9c5,6.6,11.6,6.7,17.4,5.2c1.4-0.4,2.7-1,4-1.5
			c0.9,1.4,1.8,2.8,2.5,4c3.1,5,5.6,9,7.5,10.8c3,3,6.4,4.6,10.3,4.8c3,0,6.1-0.9,9.6-2.6c1-0.5,1.8-1,2.7-1.5
			c3,3.5,5.7,6.5,7.5,7.8c3.3,2.4,6.6,3.2,9.7,3c3.1-0.5,5.9-2,8.4-3.7c1.1-0.8,2.1-1.6,3.2-2.5c2.2,1.7,4.4,3.4,6.3,5
			c3.2,2.6,6,4.9,8,5.9c2.3,1.2,4.6,1.8,6.9,1.8c5.5,0,9.9-3.5,12.7-6.2c0.8-0.8,1.5-1.6,2.2-2.4c3.9,2.3,7.4,4.4,9.6,5.1
			c8,2.8,13.2-2,16.9-6.7c0.9-1.1,1.5-2.2,2.3-3.3c2.6,0.9,5.2,1.8,7.6,2.7c4,1.5,7.2,2.7,9.5,3c7.5,0.5,13.1-2.9,17-10.4
			c0.5-1.1,0.8-2,1.2-3.1c4.5,1,8.5,1.9,10.7,1.8c8.2-0.6,12-6.1,13.9-11.7c0.4-1.5,0.7-2.8,1-4.2c1.5,0,3,0,4.6,0.2
			c2.2,0,4.3,0.1,6.1,0.1c3.4,0,5.6-0.2,7-0.5c7.5-1.5,11.8-6.7,12.8-15.4c0.1-1.1,0.1-2,0.2-3.1c4.7-0.6,8.7-1.2,10.8-2
			c7.9-2.8,9.6-9.4,9.3-15.6c0-1.4-0.2-2.7-0.3-4c0.9-0.3,1.8-0.7,2.7-1L512,385.2L512,385.2z M441.7,248.1
			c0.8-4.2,2.8-8.3,4.8-12.3c0.6,0.4,1.2,0.8,1.7,1.3c5.8,4.8,7.4,9.7,5,15.6c-0.6,1.6-2.3,4.2-4.3,7.1c-0.7,1.1-1.5,2.2-2.2,3.4
			c-0.8,1.1-1.4,2.2-2.2,3.3c-1.1-1.1-2.2-2.2-2.9-3.1c0.1-2.7,0.4-5.3,0.4-8C442,252.8,441.7,250.5,441.7,248.1z M442.2,300.2
			c0.8,1.2,1.6,2.5,2.3,3.7h-5.7C439.9,302.6,441,301.4,442.2,300.2z M429.5,173.2c6,2,11.9,5.3,12,13.8c-0.1,1.7-1,4.9-2,8.3
			c-0.3,1.2-0.7,2.6-1.2,4.2c-0.3,1.1-0.5,2.2-0.8,3.4c-1.3-0.7-2.6-1.3-3.6-2c-1.4-4.7-3.1-9.3-4.8-13.8
			C428.8,182.5,429.1,177.7,429.5,173.2z M62.1,303.9h-5.4c-3.6-2.8-6-6.6-4.8-12.8c0.1-1.8,1.8-5.3,3.6-8.9c0.9-1.9,1.9-4,2.8-6.1
			c1.2,0.9,2.4,1.7,3.3,2.6c0.6,5.1,1.3,10.3,2.4,15.3C63.8,297.3,63,300.6,62.1,303.9z M61.7,230.7c-1.7,4-4.3,8.1-6.9,11.8
			c-4.3-4.7-7.9-10.3-4-17.7c1-1.6,3.2-3.8,5.8-6.5c1.7-1.8,3.6-3.8,5.4-5.8c0.8,1.2,1.6,2.3,2.1,3.3
			C63,220.8,62.3,225.7,61.7,230.7z M408.9,129.1c0.7,1.7,0.9,5.4,1,9.4c0.1,2,0.3,4.3,0.4,6.6c-1.5-0.2-3-0.4-4.2-0.7
			c-2.8-4-5.7-7.9-8.8-11.6c-2-3.8-3.2-8.5-4.2-13C399.5,119.5,406.3,120.5,408.9,129.1z M343.5,80.1c7.7-2,12.4-0.7,15.8,4.2
			c1.1,1.6,2.4,4.7,3.9,8.4c0.8,2,1.8,4.3,2.8,6.5c-1.5,0.3-3,0.6-4.2,0.7c-4-2.9-8.1-5.5-12.3-8c-3-3.2-5.7-7.2-8.1-11.1
			C342.2,80.6,342.8,80.3,343.5,80.1z M281.6,59.4c5.9-4,11.2-4.3,16.4-0.9c1.6,1,3.9,3.7,6.4,6.7c1.3,1.6,2.9,3.4,4.5,5.1
			c-1.2,0.7-2.4,1.4-3.4,1.9c-4.9-1.5-9.9-2.8-15-3.9c-3.7-1.9-7.3-4.7-10.6-7.5C280.5,60.4,281,59.9,281.6,59.4z M216.5,60.1
			c3-4.5,6.7-6.8,11-6.8c1.3,0,2.6,0.2,4.2,0.6c1.8,0.3,5.1,2.3,8.5,4.3c1.7,1,3.8,2.1,5.7,3.2c-0.9,1.1-1.8,2.3-2.7,3
			c-5,0.2-10.1,0.5-15,1.1c-4.2-0.5-8.7-2.1-12.9-3.7C215.7,61.3,216,60.7,216.5,60.1z M154.9,82c2.4-7.4,6.2-10.8,12.5-10.9
			c2,0,5.2,0.6,8.8,1.3c2.1,0.4,4.6,0.9,7.1,1.2c-0.5,1.4-1.1,2.7-1.6,3.7c-4.6,1.8-9.1,3.8-13.5,6c-4.3,0.8-9.2,0.8-13.7,0.7
			C154.6,83.3,154.7,82.7,154.9,82z M112,108.2c1.6-0.8,5.4-1.3,9.4-1.8c2-0.3,4.3-0.6,6.6-1c0,1.4-0.1,2.9-0.3,4.1
			c-3.9,3.3-7.7,6.7-11.2,10.2c-3.6,2.2-8.1,3.6-12.4,4.9C103.4,118.2,104,111.6,112,108.2z M69.6,179.4c-0.3-0.6-0.6-1.2-0.8-1.9
			c-2.7-7.3-1.9-12.2,2.9-16.1c1.3-1.1,4-2.6,7.2-4.3c1.2-0.6,2.4-1.2,3.6-1.9l1.4-0.7c0.7-0.4,1.5-0.8,2.2-1.2
			c0.4,1.5,0.8,2.9,1,4.2c-2.5,4.3-4.9,8.5-7.1,13C77.2,173.9,73.2,176.7,69.6,179.4z M130.7,413c-0.8,0.1-1.7,0.1-2.5,0.1
			c-5.7,0-9.7-2.3-12.3-7c-0.8-1.7-1.6-5-2.4-8.9c-0.5-2.2-1.1-4.7-1.7-7.1c1.5,0,3-0.1,4.2,0c3.5,3.5,7.3,6.8,11,10
			c2.5,3.6,4.5,8.1,6.2,12.3C132.3,412.7,131.5,412.9,130.7,413z M188.4,443.3c-3,1.5-5.7,2.3-8.1,2.3c-3-0.2-5.7-1.5-8.1-3.9
			c-1.7-1.6-4.2-5.6-7-10.1c-0.6-1.1-1.5-2.3-2.2-3.5c1.5-0.6,2.9-1.2,4.1-1.5c4.5,2.2,9,4.3,13.6,6.1c3.6,2.4,6.8,6,9.6,9.5
			C189.7,442.5,189.1,443,188.4,443.3z M252.9,453.4c-2.4,2.3-6.1,5.3-10.5,5.3c-1.7,0-3.6-0.5-5.4-1.5c-1.7-0.8-4.3-3-7.4-5.5
			c-1.7-1.4-3.7-3-5.7-4.5c1.2-1,2.4-2,3.4-2.6c4.9,0.6,9.9,1,14.9,1.2c4.2,1.4,8.3,3.7,12.3,5.9
			C253.9,452.2,253.4,452.8,252.9,453.4z M317.2,442.2c-3,5.9-7.2,8.7-12.6,8.7c-0.4,0-0.9,0-1.3,0c-1.8-0.2-5-1.4-8.7-2.8
			c-2.1-0.8-4.5-1.7-6.9-2.4c0.8-1.3,1.6-2.5,2.3-3.5c5-1,9.9-2.4,14.8-3.8c4.3-0.1,8.9,0.7,13.3,1.6
			C317.7,440.7,317.5,441.5,317.2,442.2z M251,425.1c-41.6,0-79.7-15-109.2-40h218.5C330.7,410.1,292.6,425.1,251,425.1z
			 M374.1,410.5c-0.8,7.3-4.1,11.5-10.3,12.7c-1.6,0.4-4.3,0.4-6.3,0.4c-1.8,0-3.9,0-6-0.1c-1.3-0.1-2.6-0.1-3.9-0.1
			c0.3-1.6,0.6-3,1-4.2c4.1-2.4,8.2-5,12.1-7.8c4.1-1.8,8.9-2.6,13.5-3.1C374.2,409,374.2,409.7,374.1,410.5z M83.5,283.2
			c-1.5-9.1-2.5-18.4-2.5-28c0-93.7,76.3-170,170-170c93.7,0,170,76.3,170,170c0,9.6-1,18.9-2.5,28H83.5z"/>
		<path d="M191.1,340c-0.6,0.1-1.2,0.2-1.8,0.3c-0.6,0.1-1.3,0.2-1.8,0.3c-0.6,0.1-1.2,0.3-1.7,0.5c-0.5,0.2-1,0.5-1.5,0.9
			c-0.4,0.3-0.7,0.8-1,1.4c-0.3,0.6-0.4,1.3-0.4,2.1c0,0.9,0.1,1.6,0.4,2.1c0.3,0.5,0.6,1,1,1.3c0.4,0.3,1,0.6,1.6,0.7
			c0.6,0.1,1.2,0.2,1.8,0.2c1.5,0,2.7-0.3,3.6-0.9c0.8-0.6,1.5-1.3,1.9-2.2c0.4-0.9,0.6-1.7,0.8-2.6c0.1-0.9,0.1-1.6,0.1-2.1v-3.5
			c-0.3,0.3-0.7,0.6-1.2,0.8C192.2,339.7,191.7,339.9,191.1,340z"/>
		<path d="M362.4,327.5c-1.2,0-2.3,0.3-3.1,0.8c-0.8,0.5-1.5,1.1-2,1.9c-0.5,0.8-0.8,1.5-1,2.3c-0.2,0.8-0.3,1.6-0.3,2.3h12.6
			c-0.4-2.4-1-4.2-2-5.4C365.7,328.1,364.3,327.5,362.4,327.5z"/>
		<path class="st0" d="M264.1,192.2c14.5-20.9,46.5-68.3,46.5-68.3l0.8-4.2l-57,61.7l0,1.3c-30.9-30.5-60.1-59.4-60.8-60.1
			c-1.6-1.5-3.7-0.2-5.3,1.4c-1.6,1.6-16.2,17-18.3,19.2c2.3,2.8,4.3,2.3,5.9,0.6c1.7-1.6,12.7-12.8,12.7-12.8s0.5,0.5,1.5,1.5
			L177,145.9l1.8,1.8l13.3-13.5c0.5,0.5,1,1,1.5,1.5l-13.3,13.5l1.8,1.8l13.3-13.4c0.5,0.5,1,1,1.6,1.6l-13.3,13.4l1.8,1.8
			l13.3-13.4c0.5,0.5,1,1,1.5,1.5L187,155.7l1.8,1.8l13.3-13.4c0.4,0.4,0.8,0.8,1.3,1.2L190,158.7l1.8,1.8l13.3-13.5
			c0.5,0.5,1,1,1.5,1.5L193.3,162l1.8,1.8l13.3-13.4c0.5,0.5,1,1,1.6,1.6l-13.3,13.5l1.8,1.7l13.3-13.4c0.5,0.5,1,1,1.5,1.5
			L200,168.6l1.8,1.8l13.3-13.4c0.5,0.5,1,1,1.6,1.5l-13.3,13.5l1.8,1.8l13.3-13.5c0.5,0.5,1,1,1.5,1.5l-13.3,13.4l1.8,1.8
			l13.3-13.4c0.4,0.4,0.8,0.8,1.3,1.2l-13.3,13.5l1.8,1.8l13.3-13.4c0.5,0.5,1,1,1.5,1.5l-13.3,13.5l1.8,1.8l13.3-13.5
			c0.4,0.4,0.8,0.8,1.3,1.2l-13.3,13.4l1.8,1.8l13.3-13.4c0.5,0.5,1,1,1.5,1.5l-13.3,13.4l1.8,1.8l13.3-13.5c0.5,0.5,1,1,1.6,1.6
			l-13.3,13.4l1.8,1.8l13.3-13.4c0.5,0.5,1,1,1.5,1.5l-13.3,13.4l1.4,1.3c-13.8,3.4-25.7,1.7-26.2,1.7c-7.3-2-15.9,0.2-22.1,6.4
			c-9,8.8-9.9,22.5-2,30.6c7.9,8,21.6,7.3,30.6-1.5c0,0,0-0.1,0.1-0.1c0,0.1,0,0.1,0,0.1l43.6-40.1c0.2,0.2,0.5,0.5,0.7,0.7
			l-13.3,13.4l1.8,1.8l0.8-0.8l-28.9,30.6c-0.3,0.3-0.6,0.5-0.9,0.8c-9,8.8-9.8,22.5-2,30.5c7.9,8,21.6,7.4,30.6-1.5
			c6.4-6.3,8.7-15.1,6.6-22.5c-0.2-1.5-2.2-20,6.5-37.4l7-7c30.7,30.3,59.8,59,60.7,59.9c1.8,1.8,9.1-4.1,6.6-6.7
			C326.2,253.6,295.7,223.4,264.1,192.2z M203.1,228.1c-6.4,6.3-15.9,7-21.2,1.6c-5.3-5.4-4.5-14.9,1.9-21.2
			c6.4-6.3,15.9-7,21.2-1.6S209.5,221.8,203.1,228.1z M228.6,195.4l12.5-12.7c0.4,0.4,0.8,0.8,1.3,1.3l-10.2,10.4
			C231,194.7,229.8,195.1,228.6,195.4z M244.3,188.6c-2.1,1.3-4.2,2.5-6.4,3.5l6.3-6.4c0.5,0.5,1,1,1.5,1.5L244.3,188.6z
			 M235.5,263.7c-6.4,6.3-15.9,7-21.2,1.6c-5.3-5.4-4.5-14.9,1.9-21.2c6.4-6.3,15.9-7,21.2-1.6C242.8,247.9,241.9,257.4,235.5,263.7
			z M259.3,186.8c-1.4-1.4-1.3-3.6,0-4.9c1.4-1.3,3.6-1.3,4.9,0c1.3,1.4,1.3,3.6,0,4.9C262.8,188.2,260.6,188.2,259.3,186.8z"/>
		<path d="M273.5,183.3l54.4-49.9l-4.4,1c0,0-14.5,9.8-31,21.1C286.1,164.9,279.2,174.9,273.5,183.3z"/>
	</g>
</g>
<g>
	<path class="st1" d="M106.4,372.2c-2,2.7-4.4,4.8-7.2,6.3s-6.1,2.2-9.7,2.2c-6.4,0-11.4-2-15-6.1c-3.6-4.1-5.4-10.4-5.4-19V318
		h19.1v37.6c0,3.4,0.7,6,2,7.7s3.2,2.6,5.6,2.6c2,0,3.8-0.3,5.4-0.9c1.6-0.6,2.9-1.4,4-2.5V318h19.2v61.5h-16.8L106.4,372.2z"/>
	<path class="st1" d="M169.6,334.9l-7,0c-2.2,0-4,0.4-5.4,1.1c-1.4,0.7-2.4,1.8-3.1,3.1v40.3h-19.2V318h18.1l0.7,9
		c1.3-3.2,3-5.7,5.1-7.5c2.1-1.8,4.6-2.7,7.4-2.7c0.9,0,1.8,0.1,2.8,0.2c0.9,0.1,1.8,0.3,2.5,0.5L169.6,334.9z"/>
	<path class="st1" d="M234.8,350c0,9.4-2,16.8-6,22.3c-4,5.5-10,8.3-17.8,8.3c-3.4,0-6.3-0.7-8.8-2.2s-4.6-3.5-6.4-6.3l-1.2,7.3
		h-16.6v-88.6h19.2V324c1.7-2.3,3.7-4,5.9-5.3c2.2-1.2,4.9-1.8,7.8-1.8c7.9,0,13.9,2.9,17.9,8.7c4,5.8,6,13.5,6,23.3V350z
		 M215.7,348.8c0-5.5-0.7-9.7-2-12.7c-1.4-3-3.9-4.5-7.6-4.5c-2.1,0-3.9,0.4-5.4,1.2s-2.7,1.9-3.5,3.4V362c0.9,1.3,2.1,2.3,3.6,3
		c1.5,0.6,3.3,1,5.5,1c3.8,0,6.3-1.3,7.6-4c1.3-2.6,1.9-6.6,1.9-11.9V348.8z"/>
	<path class="st1" d="M313.3,379.5h-19.1v-33.3h-30.6v33.3h-19.3v-82.7h19.3v34.7h30.6v-34.7h19.1V379.5z"/>
	<path class="st1" d="M360.6,379.4c-0.5-1-1-2.1-1.4-3.3c-0.4-1.2-0.8-2.5-1.1-3.8c-1.8,2.5-4,4.6-6.6,6c-2.6,1.5-5.7,2.2-9.4,2.2
		c-5.8,0-10.6-1.7-14.2-5c-3.6-3.4-5.5-7.9-5.5-13.5c0-6.1,2.3-10.8,6.8-14.1c4.6-3.3,11.5-5,20.8-5h7v-4.4c0-2.6-0.6-4.6-1.8-6
		s-3.1-2.1-5.7-2.1c-2.2,0-3.8,0.5-4.9,1.6c-1.1,1-1.6,2.7-1.6,4.9l-18.6,0l-0.1-0.3c-0.3-5.6,2.1-10.3,7-14.1s11.4-5.7,19.5-5.7
		c7.6,0,13.7,1.9,18.4,5.7s7.1,9.2,7.1,16.2V362c0,3.3,0.3,6.3,0.8,9.1c0.5,2.8,1.4,5.6,2.5,8.4L360.6,379.4z M348,367
		c1.9,0,3.6-0.4,5.2-1.1c1.6-0.8,2.9-1.7,3.9-3v-9.6h-6.8c-3,0-5.2,0.7-6.6,2.2c-1.4,1.5-2.1,3.3-2.1,5.6c0,1.8,0.6,3.2,1.8,4.2
		C344.5,366.4,346.1,367,348,367z"/>
	<path class="st1" d="M407.1,303.7h-19.2v-12.9h19.2V303.7z M407.1,379.5h-19.2V318h19.2V379.5z"/>
	<path class="st1" d="M453.6,334.9l-7,0c-2.2,0-4,0.4-5.4,1.1c-1.4,0.7-2.5,1.8-3.1,3.1v40.3h-19.2V318h18.1l0.7,9
		c1.3-3.2,3-5.7,5.1-7.5s4.6-2.7,7.4-2.7c0.9,0,1.8,0.1,2.8,0.2c1,0.1,1.8,0.3,2.5,0.5L453.6,334.9z"/>
</g>
</svg>
